<svg xmlns="http://www.w3.org/2000/svg" width="256" height="80" fill="none" xmlns:v="https://vecta.io/nano"><g clip-path="url(#A)" fill="#cdd6f4"><path d="M52.612 78.782H23.33a2.56 2.56 0 0 1-2.559-2.559v-7.677h-7.974a2.56 2.56 0 0 1-2.559-2.559V55.314l-8.821-4.396a2.56 2.56 0 0 1-.985-3.71l9.806-14.714v-4.35C10.241 12.599 22.843 0 38.388 0s28.147 12.599 28.15 28.142c-.631 27.825-10.76 23.517-11.181 34.046l-.186 14.035a2.59 2.59 0 0 1-.75 1.809 2.55 2.55 0 0 1-1.809.749zm-26.723-5.118h24.164l.286-14.541c-.263-6.656 11.716-8.244 11.081-30.735-.359-12.712-10.314-23.271-23.032-23.271S15.359 15.425 15.356 28.143v5.118c-.001.505-.15.999-.43 1.42l-8.629 12.94 7.644 3.821a2.56 2.56 0 0 1 1.415 2.29v9.697h7.974a2.56 2.56 0 0 1 2.559 2.559v7.677zm14.483-15.442V38.934c.118 0 .237.019.355.019 9.769-.013 17.05-9.012 15.022-18.568-.194-.913-.908-1.627-1.822-1.821a15.34 15.34 0 0 0-18.097 11.34c-.024-.024-.043-.05-.066-.073-3.674-3.688-8.969-5.259-14.059-4.171-.914.194-1.627.908-1.822 1.822-2.027 9.555 5.252 18.553 15.02 18.568.237 0 .492-.028.738-.04v12.213h4.731zm2.839-32.143c2.142-2.145 5.097-3.274 8.124-3.106.349 6.34-4.887 11.577-11.228 11.23a10.58 10.58 0 0 1 3.104-8.123zM27.403 38.193a10.61 10.61 0 0 1-3.118-8.123A10.65 10.65 0 0 1 35.513 41.3c-3.023.17-5.973-.961-8.11-3.106zm76.832-13.581c0 3.128-1.044 5.548-3.133 7.259s-4.989 2.566-8.702 2.566H77.063V0h14.032c3.742 0 6.57.733 8.484 2.2 1.929 1.45 2.894 3.601 2.894 6.452 0 1.955-.486 3.609-1.458 4.962-.957 1.336-2.422 2.24-4.394 2.713 2.48.326 4.365 1.206 5.656 2.64 1.305 1.418 1.958 3.299 1.958 5.646zM96.011 9.63c0-1.548-.442-2.648-1.327-3.3-.87-.652-2.168-.978-3.894-.978h-7.31v8.53h7.353c1.813 0 3.126-.35 3.938-1.051.827-.717 1.24-1.784 1.24-3.202zm1.784 14.42c0-3.226-2.059-4.839-6.178-4.839H83.48v9.874h8.376c2.06 0 3.561-.416 4.503-1.247.957-.847 1.436-2.11 1.436-3.788zm32.524 10.388l-7.113-13.076h-7.528v13.076h-6.418V0h15.316c3.655 0 6.476.888 8.463 2.664 1.987 1.76 2.98 4.293 2.98 7.601 0 2.412-.609 4.497-1.827 6.257-1.218 1.743-2.865 2.892-4.939 3.446l8.289 14.469h-7.223zm-.761-23.879c0-3.308-1.885-4.962-5.656-4.962h-8.224v10.167h8.398c1.798 0 3.161-.456 4.09-1.369s1.392-2.191 1.392-3.837zm33.569 23.879l-2.72-8.799h-11.683l-2.719 8.799h-6.418L150.769 0h7.571l11.139 34.438h-6.352zm-8.572-29.134l-.131.538-.522 2.004c-.203.75-1.45 4.872-3.742 12.367h8.811l-3.024-9.899-.935-3.324-.457-1.686zm19.101 29.134V0h6.418v34.438h-6.418zm31.067 0L191.365 7.919l.391 6.208v20.31h-5.699V0h7.331l13.554 26.739-.392-6.721V0h5.7v34.438h-7.527zM105.259 78.75V58.067v-1.405l.23-6.031-2.418 9.082-5.85 19.036h-4.837l-5.85-19.036-2.464-9.082.276 7.435V78.75h-6.034V44.625h9.097l5.804 19.085.507 1.841 1.105 4.577 1.451-5.474 5.965-20.029h9.051V78.75h-6.034zm35.283 0l-2.879-8.719h-12.367l-2.879 8.719h-6.794l11.838-34.125h8.014l11.792 34.125h-6.725zm-9.074-28.869l-.138.533-.553 1.986c-.215.743-1.535 4.828-3.961 12.255h9.327l-3.201-9.809-.99-3.294-.484-1.671zm49.148 11.552c0 3.52-.66 6.596-1.98 9.228-1.306 2.616-3.163 4.618-5.574 6.006-2.395 1.389-5.144 2.083-8.245 2.083h-13.128V44.625h11.746c5.466 0 9.696 1.453 12.69 4.359 2.994 2.89 4.491 7.04 4.491 12.449zm-6.84 0c0-3.665-.906-6.459-2.718-8.38-1.811-1.937-4.399-2.906-7.761-2.906h-4.814v23.081h5.758c2.917 0 5.236-1.058 6.956-3.173s2.579-4.989 2.579-8.622zm11.999 17.317V44.625h25.518v5.522h-18.724v8.574h17.32v5.522h-17.32v8.985h19.669v5.522h-26.463zm31.507 0v-7.387h6.655v7.387h-6.655zm24.886-24.298c2.775 0 5.216.521 7.323 1.562s3.721 2.531 4.844 4.47c1.11 1.939 1.665 4.201 1.665 6.786 0 3.974-1.23 7.092-3.69 9.354-2.472 2.25-5.853 3.375-10.142 3.375-4.277 0-7.613-1.125-10.01-3.375s-3.596-5.38-3.596-9.39 1.212-7.14 3.634-9.39c2.422-2.262 5.746-3.393 9.972-3.393zm0 5.404c-2.876 0-5.128.646-6.756 1.939-1.64 1.293-2.46 3.106-2.46 5.44 0 2.37.814 4.201 2.441 5.494 1.615 1.293 3.873 1.939 6.775 1.939 2.926 0 5.235-.658 6.925-1.975 1.678-1.328 2.517-3.136 2.517-5.422 0-2.37-.82-4.195-2.46-5.476-1.64-1.293-3.967-1.939-6.982-1.939zm13.454-26.804l-10.124 5.871v6.212h10.124v5.296H228.96V37.792c0-3.016.687-5.344 2.062-6.984 1.363-1.64 3.324-2.46 5.885-2.46 1.867 0 3.482.503 4.844 1.508 1.35 1.005 2.24 2.364 2.668 4.075l11.203-6.84v5.961zm-18.488.628c-2.56 0-3.841 1.556-3.841 4.668v6.786h7.872v-6.93c0-1.484-.353-2.609-1.06-3.375s-1.697-1.149-2.971-1.149z"/><path d="M251.629 11.849a12.96 12.96 0 0 0-.625-4.004c-.428-1.293-.971-2.292-1.627-2.998h-3.69v6.176h-4.125V0h9.802c1.451 1.341 2.586 3.088 3.406 5.242.82 2.142 1.23 4.393 1.23 6.75 0 4.117-1.198 7.283-3.595 9.497-2.41 2.214-5.822 3.321-10.237 3.321-4.39 0-7.752-1.113-10.086-3.339-2.346-2.226-3.52-5.428-3.52-9.605 0-5.937 2.315-9.713 6.945-11.328l1.552 4.883c-1.35.527-2.372 1.352-3.066 2.478s-1.041 2.448-1.041 3.968c0 2.49.795 4.381 2.385 5.673s3.866 1.939 6.831 1.939c3.015 0 5.348-.664 7.001-1.993 1.64-1.34 2.46-3.22 2.46-5.637z"/></g><defs><clipPath id="A"><path fill="#fff" d="M0 0h256v80H0z"/></clipPath></defs></svg>