<svg xmlns="http://www.w3.org/2000/svg" viewBox="0 0 512 512">
  <circle cx="256" cy="256" r="256" fill="#393a59"/>
  <path fill="#6a6577" d="M470 215a214 214 0 0 1-363 154A214 214 0 0 1 255 0c119 0 215 96 215 215z"/>
  <path fill="#393a59" d="M186 234a35 35 0 0 0-27 41h-3a42 42 0 0 0-39 62 42 42 0 0 0-74-4 35 35 0 0 0-35-12l-3-14 20-38 8 8c9 10 24 12 36 6l-10-20 6 1c11 3 21-3 26-12l2-6 10 20a31 31 0 0 0 17-32l-1-11 4 1zm287 86c-1 3-5 3-6 1a35 35 0 0 0-36-20 38 38 0 0 0 0-3 42 42 0 0 0-59-42 42 42 0 0 0 9-74 35 35 0 0 0 12-40c-1-3 2-5 5-3l44 28c2 1 2 3 0 4l-5 5c-9 8-13 21-9 32 0 2 2 3 4 2l12-5c2-1 5 1 4 4-3 10 1 21 11 26 2 1 2 4-1 5l-12 5c-1 1-2 3-1 5a31 31 0 0 0 30 16l6-1c2 0 4 2 4 4l-1 1zM211 33c3 1 2 4 0 5a35 35 0 0 0-27 32 38 38 0 0 0-2-1 42 42 0 0 0-53 51h-1a42 42 0 0 0-70-24 35 35 0 0 0-37-19c-3 0-5-3-3-5l37-39c1-1 3-1 4 1l4 6c6 11 18 17 30 15 1 0 3-1 2-3l-2-13c-1-2 2-4 4-3 9 5 21 2 28-6 1-2 5-1 5 1l3 13c0 2 2 3 4 2a31 31 0 0 0 21-26l1-6c0-2 2-4 4-3l1 1z"/>
  <path fill="#282942" d="M433 441a256 256 0 0 1-354 0 115 115 0 0 1 107-73h144c47 2 87 31 103 73z"/>
  <path fill="#d863bb" d="M256 449s177-129 171-141a97 97 0 0 0-38-37c-23-13-46-16-46-16L202 375z"/>
  <path fill="#282942" d="M256 449s177-129 171-141a97 97 0 0 0-38-37c15 16 28 40 7 61-3 4-7 6-11 7-14 5-27 12-38 23z"/>
  <path fill="#d863bb" d="M256 449S79 320 85 308c10-17 24-29 38-37 23-13 46-16 46-16z"/>
  <path fill="#ccc" d="m403 150-49 29v58a24 24 0 0 0 49 0zm-294 0 49 29v58a24 24 0 0 1-49 0zm201 158v58a54 54 0 1 1-108 0v-58z"/>
  <path fill="#ededed" d="M377 145v102a120 120 0 0 1-121 121c-67 0-121-54-121-121V145a121 121 0 0 1 17-62c21-35 187-35 208 0a120 120 0 0 1 17 62z"/>
  <path fill="#ccc" d="M170 247V145c0-61 45-111 103-119l-17-2c-67 0-121 54-121 121v102a121 121 0 0 0 138 120c-58-9-103-59-103-120z"/>
  <path fill="#393a59" d="M316 224v-23a11 11 0 1 0-22 0v23a11 11 0 1 0 22 0zm-120-23v23a11 11 0 1 0 22 0v-23a11 11 0 1 0-22 0z"/>
  <g fill="#7f7d89">
    <circle cx="309" cy="204.6" r="7.1"/>
    <circle cx="210.6" cy="204.6" r="7.1"/>
    <circle cx="301" cy="221.5" r="4.1"/>
    <circle cx="202.6" cy="221.5" r="4.1"/>
  </g>
  <path fill="#282942" d="M162 129v4c1 14-4 29-15 39l-12 8v-35c0-23 6-44 17-62 7 7 12 16 14 26-3 6-4 13-4 20zm215 16v35l-12-8a47 47 0 0 1-15-39 48 48 0 0 0-4-24c2-10 7-19 14-26 11 18 17 39 17 62z"/>
  <path fill="#ededed" d="m223 211-44-17 10-25 44 17zm56-25 44-17 10 25-44 17z"/>
  <path fill="#393a59" d="M313 258a57 57 0 1 1-114 0 128 128 0 0 0 114 0z"/>
  <path fill="#e87bc2" d="M288 305a57 57 0 0 1-64 0 57 57 0 0 1 64 0z"/>
  <path fill="#ccc" d="M323 170H189l37 28h5c7 0 13 6 13 13v21c0 7 5 12 12 12 7 1 12-5 12-12v-21c0-7 6-13 13-13h5z"/>
  <path fill="#f0f0f0" d="m297 264-3 14-6 15-6-15-3-9 18-5zm-64 5-3 9-6 15-6-15-3-14 18 5z"/>
  <path fill="#393a59" d="m170 178 10-16c2-3 6-4 8-2l43 27c6 4 2 13-5 11l-52-11c-5-1-7-6-4-9zm172 0-10-16c-2-3-6-4-9-2l-42 27c-6 4-2 13 5 11l52-11c5-1 7-6 4-9z"/>
  <path fill="#ccc" d="M269 336h-26a5 5 0 1 1 0-10h26a5 5 0 1 1 0 10z"/>
  <path fill="#282942" d="M360 83a121 121 0 0 0-224 46h26a47 47 0 0 1 49-47c22 1 39 19 39 41v7a6 6 0 0 0 12 0v-7a41 41 0 0 1 41-41c26 0 47 21 47 47h26c-3-17-8-32-16-46zM256 449S79 320 85 308c10-17 24-29 38-37-15 16-28 40-7 61 3 4 7 6 11 7 14 5 27 12 38 23z"/>
  <path fill="#e87bc2" d="m298 441-39 15h-6l-39-15c-6-2-12 2-12 8v24c0 6 6 10 12 8l39-15h6l39 15c6 2 12-2 12-8v-24c0-6-6-10-12-8zm-4-163-6 15-6-15a16 16 0 0 1 12 0zm-64 0-6 15-6-15a16 16 0 0 1 12 0z"/>
</svg>
